<?xml version="1.0" encoding="UTF-8" standalone="no"?>
<!-- Created with Inkscape (http://www.inkscape.org/) -->

<svg
   xmlns:dc="http://purl.org/dc/elements/1.1/"
   xmlns:cc="http://creativecommons.org/ns#"
   xmlns:rdf="http://www.w3.org/1999/02/22-rdf-syntax-ns#"
   xmlns:svg="http://www.w3.org/2000/svg"
   xmlns="http://www.w3.org/2000/svg"
   xmlns:sodipodi="http://sodipodi.sourceforge.net/DTD/sodipodi-0.dtd"
   xmlns:inkscape="http://www.inkscape.org/namespaces/inkscape"
   width="210mm"
   height="297mm"
   viewBox="0 0 744.09448819 1052.3622047"
   id="svg2"
   version="1.1"
   inkscape:version="0.91 r13725"
   sodipodi:docname="icons_etc.svg"
   inkscape:export-filename="C:\Users\MRI2\Documents\joe\brainleap\games\fakephone\Assets\message_icon.png"
   inkscape:export-xdpi="90"
   inkscape:export-ydpi="90">
  <defs
     id="defs4" />
  <sodipodi:namedview
     id="base"
     pagecolor="#ffffff"
     bordercolor="#666666"
     borderopacity="1.0"
     inkscape:pageopacity="0.0"
     inkscape:pageshadow="2"
     inkscape:zoom="3.959798"
     inkscape:cx="188.01992"
     inkscape:cy="824.14677"
     inkscape:document-units="px"
     inkscape:current-layer="layer1"
     showgrid="false"
     inkscape:object-nodes="true"
     inkscape:window-width="1920"
     inkscape:window-height="1017"
     inkscape:window-x="-8"
     inkscape:window-y="-8"
     inkscape:window-maximized="1" />
  <metadata
     id="metadata7">
    <rdf:RDF>
      <cc:Work
         rdf:about="">
        <dc:format>image/svg+xml</dc:format>
        <dc:type
           rdf:resource="http://purl.org/dc/dcmitype/StillImage" />
        <dc:title></dc:title>
      </cc:Work>
    </rdf:RDF>
  </metadata>
  <g
     inkscape:label="Layer 1"
     inkscape:groupmode="layer"
     id="layer1">
    <rect
       style="color:#000000;clip-rule:nonzero;display:inline;overflow:visible;visibility:visible;opacity:1;isolation:auto;mix-blend-mode:normal;color-interpolation:sRGB;color-interpolation-filters:linearRGB;solid-color:#000000;solid-opacity:1;fill:none;fill-opacity:1;fill-rule:evenodd;stroke:none;stroke-width:1.25;stroke-linecap:butt;stroke-linejoin:miter;stroke-miterlimit:4;stroke-dasharray:none;stroke-dashoffset:0;stroke-opacity:1;color-rendering:auto;image-rendering:auto;shape-rendering:auto;text-rendering:auto;enable-background:accumulate"
       id="rect4136"
       width="128"
       height="128"
       x="119.28571"
       y="144.50507"
       inkscape:export-filename="C:\Users\MRI2\Documents\joe\brainleap\games\fakephone\Assets\Sprites\message_icon.png"
       inkscape:export-xdpi="90"
       inkscape:export-ydpi="90" />
    <path
       style="fill:none;fill-rule:evenodd;stroke:#393939;stroke-width:1.5;stroke-linecap:butt;stroke-linejoin:miter;stroke-opacity:1;stroke-miterlimit:4;stroke-dasharray:none"
       d="m 145.9668,163.93359 c -1.32911,0 -2.59332,0.26764 -3.74219,0.75196 -1.14888,0.48432 -2.18155,1.18545 -3.04883,2.05273 -0.86728,0.86728 -1.56841,1.89995 -2.05273,3.04883 -0.48432,1.14887 -0.75196,2.41308 -0.75196,3.74219 l 0,23.23437 0,23.23242 c 0,1.32911 0.26764,2.59332 0.75196,3.74219 0.48432,1.14888 1.18545,2.1835 2.05273,3.05078 0.86728,0.86728 1.89995,1.56842 3.04883,2.05274 1.14887,0.48432 2.41308,0.75195 3.74219,0.75195 l 4.4668,0 0.003,10.625 8.93108,-10.625 c 6.8031,0 11.45675,0 17.86718,0 l 4.4668,0 35.73438,0 c 1.32911,0 2.59331,-0.26763 3.74218,-0.75195 1.14888,-0.48432 2.18155,-1.18546 3.04883,-2.05274 0.86728,-0.86728 1.56842,-1.9019 2.05274,-3.05078 0.48432,-1.14887 0.75195,-2.41308 0.75195,-3.74219 l 0,-23.23242 0,-23.23437 c 0,-1.32911 -0.26763,-2.59332 -0.75195,-3.74219 -0.48432,-1.14888 -1.18546,-2.18155 -2.05274,-3.04883 -0.86728,-0.86728 -1.89995,-1.56841 -3.04883,-2.05273 -1.14887,-0.48432 -2.41307,-0.75196 -3.74218,-0.75196 l -35.73438,0 z"
       id="path4149"
       inkscape:connector-curvature="0"
       sodipodi:nodetypes="ssssscssssccccccssssscssssscs"
       inkscape:export-filename="C:\Users\MRI2\Documents\joe\brainleap\games\fakephone\Assets\Sprites\message_icon.png"
       inkscape:export-xdpi="90"
       inkscape:export-ydpi="90" />
    <path
       style="fill:none;fill-rule:evenodd;stroke:#000000;stroke-width:3.75;stroke-linecap:round;stroke-linejoin:miter;stroke-miterlimit:4;stroke-dasharray:none;stroke-opacity:1"
       d="m 154.50118,181.21935 54.64285,0"
       id="path4161"
       inkscape:connector-curvature="0"
       inkscape:export-filename="C:\Users\MRI2\Documents\joe\brainleap\games\fakephone\Assets\Sprites\message_icon.png"
       inkscape:export-xdpi="90"
       inkscape:export-ydpi="90" />
    <path
       style="fill:none;fill-rule:evenodd;stroke:#000000;stroke-width:3.75;stroke-linecap:round;stroke-linejoin:miter;stroke-miterlimit:4;stroke-dasharray:none;stroke-opacity:1"
       d="m 161.55899,194.95145 40.52722,0"
       id="path4161-8"
       inkscape:connector-curvature="0"
       inkscape:export-filename="C:\Users\MRI2\Documents\joe\brainleap\games\fakephone\Assets\Sprites\message_icon.png"
       inkscape:export-xdpi="90"
       inkscape:export-ydpi="90" />
    <path
       style="fill:none;fill-rule:evenodd;stroke:#000000;stroke-width:3.75;stroke-linecap:round;stroke-linejoin:miter;stroke-miterlimit:4;stroke-dasharray:none;stroke-opacity:1"
       d="m 158.5,208.68364 46.64521,0"
       id="path4161-5"
       inkscape:connector-curvature="0"
       inkscape:export-filename="C:\Users\MRI2\Documents\joe\brainleap\games\fakephone\Assets\Sprites\message_icon.png"
       inkscape:export-xdpi="90"
       inkscape:export-ydpi="90" />
  </g>
</svg>
